<svg width="195" height="64" viewBox="0 0 195 64" fill="none" xmlns="http://www.w3.org/2000/svg">
<path d="M35.0951 63.933C35.0505 63.8881 35.014 61.4666 35.014 58.552V53.2527L36.0799 53.0244C38.397 52.528 41.2193 51.3675 43.229 50.0847C47.7758 47.1824 51.0805 42.5495 52.4077 37.2168L52.8565 35.4139L54.8344 35.3274C57.7958 35.1978 63.4567 35.1905 63.5337 35.3161C63.6272 35.4685 62.9962 38.878 62.5822 40.4573C62.3947 41.1728 61.9258 42.5653 61.5403 43.5518C59.7723 48.0764 57.3398 51.8129 54.112 54.9623C51.6048 57.4086 49.5209 58.9328 46.5664 60.481C44.379 61.6273 42.759 62.29 40.6132 62.9162C38.7196 63.4689 35.266 64.1052 35.0951 63.933V63.933ZM162.655 24.7843C161.805 24.3241 161.51 23.7314 161.574 22.6098C161.62 21.8 161.666 21.6873 162.121 21.2667C163.651 19.8536 166.078 20.7763 166.078 22.7716C166.078 23.4431 165.652 24.2875 165.118 24.6704C164.467 25.1378 163.399 25.1872 162.655 24.7843Z" fill="white"/>
<path d="M27.8626 63.9447C25.5889 63.5713 23.4446 63.0635 21.7822 62.505C16.4129 60.701 12.3271 58.0219 8.26337 53.6406C4.39976 49.475 1.63608 43.9348 0.484901 38.0474C-0.0508493 35.3075 -0.154431 31.0024 0.233111 27.5827C0.681863 23.6229 2.6744 18.2371 5.05337 14.5537C9.17575 8.17087 15.0317 3.6839 22.2927 1.34459C25.5366 0.299478 27.7216 0 32.1027 0C35.4089 0 36.9071 0.185374 39.9941 0.976371C51.5779 3.94455 60.6868 13.7245 63.0615 25.7434C63.284 26.8693 63.4852 28.0089 63.5086 28.2757L63.534 28.6395L58.2564 28.709C55.3738 28.7469 52.9411 28.6391 52.9162 28.6171C52.8912 28.595 52.7492 28.0882 52.6005 27.4908C51.5209 23.1515 49.6568 19.7432 46.7748 16.8388C44.021 14.0636 41.0953 12.398 36.8707 11.2004C35.4412 10.7951 35.1931 10.768 32.3664 10.7085C29.6814 10.652 29.2251 10.6765 27.9134 10.9472C22.1199 12.143 17.3569 15.3173 14.1737 20.1039C8.62578 28.4465 9.56823 39.4949 16.4477 46.7623C19.375 49.8545 22.9805 51.9392 27.0734 52.9058L28.6909 53.2879L28.655 58.6255C28.6159 64.4252 28.6678 64.0769 27.8626 63.9447L27.8626 63.9447ZM98.621 41.3084C97.0357 40.7786 95.8523 39.559 95.3122 37.8983C95.0682 37.1479 95.0452 36.6535 95.0452 32.1567V27.2362L96.851 27.1976L98.6567 27.159L98.7156 31.5637C98.77 35.6336 98.7959 36.0158 99.056 36.5921C99.4199 37.3985 99.7703 37.7004 100.591 37.915C101.807 38.2329 103.092 37.7845 103.749 36.8125C104.255 36.0643 104.351 35.2644 104.426 31.1518L104.499 27.1669H106.34H108.182L108.146 34.2704L108.11 41.374H106.391H104.672L104.63 40.7156C104.607 40.3535 104.523 40.0572 104.444 40.0572C104.364 40.0572 104.063 40.2457 103.775 40.476C102.865 41.202 102.053 41.4803 100.686 41.5348C99.7184 41.5733 99.2649 41.5236 98.621 41.3084V41.3084ZM114.162 41.4921C112.74 41.1943 111.184 40.6226 110.772 40.2463C110.561 40.0546 110.568 39.9811 110.859 39.2513C111.393 37.9142 111.609 37.4454 111.725 37.3733C111.786 37.3352 112.112 37.4307 112.449 37.5855C113.965 38.282 115.788 38.6277 117.086 38.4646C118.249 38.3184 118.858 37.6263 118.546 36.8062C118.402 36.4288 117.768 36.1954 115.874 35.8233C113.639 35.384 112.704 35.0407 112.002 34.4017C111.133 33.6103 110.866 32.9675 110.867 31.6716C110.868 30.81 110.94 30.4011 111.19 29.8382C111.763 28.5459 113.196 27.5135 114.918 27.1525C116.592 26.8014 120.308 27.2609 121.36 27.949C121.74 28.1981 121.71 28.4062 121.081 29.8697C120.559 31.0842 120.522 31.122 120.116 30.8537C119.578 30.499 117.703 30.0776 116.662 30.0776C115.151 30.0776 114.144 30.811 114.426 31.7062C114.567 32.1533 115.466 32.5309 117.256 32.8941C120.261 33.5039 121.329 34.1009 121.929 35.5058C122.36 36.5158 122.283 38.0722 121.757 38.9762C120.725 40.7517 118.832 41.5963 115.955 41.5658C115.12 41.557 114.313 41.5238 114.162 41.4921ZM129.046 41.3649C127.701 41.0366 126.745 40.4942 125.781 39.5133C124.27 37.9764 123.72 36.5655 123.72 34.2318C123.72 30.0145 126.571 27.0282 130.596 27.0282C133.197 27.0282 135.421 28.3428 136.531 30.5352C137.063 31.5865 137.411 33.4289 137.353 34.8941L137.335 35.3446L133.175 35.3457C130.887 35.3462 128.69 35.3862 128.293 35.4343C127.671 35.5096 127.571 35.5633 127.571 35.8218C127.571 36.3289 128.333 37.3752 128.97 37.7424C129.922 38.2917 130.885 38.4605 131.96 38.2669C132.461 38.1766 133.118 37.9521 133.419 37.7679C134.559 37.0699 134.555 37.0709 134.841 37.4369C134.984 37.6201 135.357 38.0808 135.668 38.4606C135.98 38.8403 136.235 39.2568 136.235 39.3861C136.235 39.9374 134.243 41.1305 132.824 41.4286C131.847 41.634 130.022 41.6031 129.046 41.3647L129.046 41.3649ZM133.799 33.0413C133.959 32.8799 133.356 31.5554 132.904 31.0767C132.282 30.4171 131.507 30.0837 130.596 30.0837C129.268 30.0837 128.334 30.7281 127.672 32.1029C127.175 33.1333 127.156 33.1269 130.638 33.1269C132.33 33.1269 133.752 33.0884 133.799 33.0413ZM141.647 41.3049C140.555 40.9447 139.548 40.0514 139.129 39.0706C138.871 38.4646 138.83 38.1566 138.87 37.0908C138.911 35.9729 138.964 35.7528 139.329 35.1642C139.804 34.3992 140.665 33.7698 141.661 33.4584C142.079 33.3279 143.309 33.1921 144.753 33.1172C146.071 33.0487 147.205 32.9373 147.273 32.8695C147.463 32.6775 147.136 31.6672 146.724 31.173C145.76 30.0183 143.575 29.9049 141.54 30.9041C141.069 31.1356 140.637 31.325 140.582 31.325C140.451 31.325 139.398 29.0649 139.398 28.7851C139.398 28.425 140.017 28.0567 141.421 27.5817C142.5 27.2164 143.058 27.1127 144.23 27.0599C146.805 26.9438 148.304 27.3975 149.574 28.6766C150.875 29.9882 151.12 31.4951 151.056 37.7811L151.019 41.374H149.369H147.719L147.681 40.9582C147.66 40.7295 147.61 40.3928 147.57 40.21L147.497 39.8776L146.989 40.3685C146.099 41.2286 145.421 41.4824 143.868 41.5361C142.769 41.5741 142.323 41.5276 141.647 41.3049H141.647ZM145.965 38.5158C146.799 38.1089 147.274 37.3496 147.349 36.3023L147.408 35.4832H145.59C143.477 35.4832 142.924 35.6542 142.613 36.4036C142.368 36.9938 142.374 37.3407 142.637 37.8525C143.129 38.8112 144.713 39.1269 145.965 38.5158ZM186.364 41.2595C184.977 40.7926 184.282 40.3976 183.442 39.5971C182.541 38.738 181.84 37.5151 181.558 36.3119C181.318 35.2839 181.284 33.2119 181.493 32.2991C182.106 29.6174 184.571 27.3619 187.225 27.0549C190.6 26.6645 193.387 28.3225 194.486 31.3759C194.72 32.0237 194.844 32.7409 194.909 33.8111L195 35.328L190.173 35.371C186.956 35.3996 185.297 35.4638 185.198 35.5636C184.93 35.8334 185.737 37.1567 186.474 37.6568C187.948 38.6577 190.415 38.5362 191.611 37.4036C191.829 37.1975 191.974 37.1552 192.141 37.2492C192.496 37.4495 194.007 39.2623 193.956 39.4263C193.863 39.7221 192.205 40.871 191.428 41.177C190.789 41.429 190.294 41.502 188.977 41.5381C187.539 41.5776 187.203 41.5418 186.364 41.2595V41.2595ZM191.358 32.7564C191.457 32.052 190.399 30.7005 189.429 30.2925C188.737 30.0018 187.685 30.0218 186.949 30.3397C186.26 30.6375 185.415 31.5539 185.187 32.2519C184.894 33.1465 184.857 33.1363 188.252 33.095C191.279 33.0581 191.316 33.054 191.358 32.7564V32.7564ZM72.074 41.2742C72.037 41.1766 72.0228 37.0114 72.0424 32.0181L72.078 22.9394H73.7067H75.3355L76.6428 25.2957C77.3619 26.5916 78.7245 29.0554 79.6709 30.7706C80.6173 32.4859 81.4719 33.9748 81.57 34.0794C81.7715 34.2942 81.4422 34.8542 85.4293 27.5159L87.9158 22.9394L89.5217 22.9003L91.1276 22.8612L91.0923 32.1176L91.0569 41.374H89.3378H87.6187L87.5827 36.0613C87.5558 32.107 87.5059 30.7623 87.3871 30.8022C87.1966 30.8662 86.3665 32.3009 84.1867 36.334L82.5657 39.3333L81.7228 39.4009C81.193 39.4433 80.8239 39.4104 80.7293 39.3123C80.6465 39.2265 79.786 37.7217 78.8172 35.9683C76.4674 31.7158 75.9765 30.8842 75.876 30.9853C75.8294 31.0322 75.7603 33.3888 75.7225 36.2222L75.6537 41.374L73.8975 41.4128C72.5687 41.4422 72.1249 41.4086 72.074 41.2742V41.2742ZM154.664 31.6023V21.7612H156.452H158.24V31.6023V41.4433H156.452H154.664V31.6023ZM162.048 41.3548C161.996 41.3019 161.953 38.0879 161.953 34.2127V27.1668H163.811H165.669L165.633 34.2704L165.597 41.374L163.871 41.4126C162.921 41.4338 162.101 41.4079 162.048 41.3549L162.048 41.3548ZM168.372 41.3522C168.321 41.3006 168.279 40.7503 168.279 40.1293V39.0003L171.511 34.8076C173.289 32.5017 174.743 30.5659 174.743 30.5059C174.743 30.3692 172.333 30.216 170.183 30.216H168.554V28.6913V27.1667H174.124H179.694V28.4174V29.6681L178.684 30.9469C175.915 34.4537 173.245 38.0485 173.339 38.1434C173.397 38.202 174.897 38.2667 176.673 38.2872L179.9 38.3245V39.8492V41.3738L174.183 41.41C171.038 41.4299 168.424 41.4039 168.372 41.3522V41.3522Z" fill="white"/>
</svg>
