<svg width="159" height="52" viewBox="0 0 159 52" fill="none" xmlns="http://www.w3.org/2000/svg">
<path d="M28.616 51.9456C28.5797 51.9091 28.5499 49.9416 28.5499 47.5735V43.2678L29.419 43.0823C31.3083 42.679 33.6096 41.7361 35.2483 40.6938C38.9557 38.3357 41.6503 34.5714 42.7325 30.2386L43.0984 28.7738L44.7111 28.7035C47.1258 28.5982 51.7416 28.5923 51.8044 28.6943C51.8806 28.8182 51.3661 31.5884 51.0286 32.8715C50.8757 33.4529 50.4934 34.5843 50.1791 35.3859C48.7374 39.0621 46.754 42.098 44.1221 44.6569C42.0778 46.6445 40.3786 47.8829 37.9696 49.1408C36.186 50.0722 34.865 50.6106 33.1154 51.1194C31.5714 51.5684 28.7554 52.0855 28.616 51.9456V51.9456ZM132.626 20.1372C131.933 19.7633 131.693 19.2817 131.745 18.3705C131.782 17.7125 131.82 17.6209 132.191 17.2792C133.439 16.131 135.417 16.8808 135.418 18.5019C135.418 19.0475 135.07 19.7336 134.635 20.0447C134.104 20.4245 133.233 20.4646 132.626 20.1372Z" fill="#FFDC50"/>
<path d="M22.7187 51.9551C20.8648 51.6517 19.1164 51.2391 17.7609 50.7853C13.3829 49.3195 10.0513 47.1428 6.73783 43.583C3.58749 40.1985 1.33403 35.697 0.395381 30.9135C-0.0414617 28.6873 -0.125921 25.1894 0.190075 22.4109C0.555981 19.1936 2.18066 14.8176 4.12044 11.8249C7.48177 6.63883 12.2567 2.99317 18.1771 1.09248C20.8221 0.243326 22.6037 0 26.1761 0C28.8719 0 30.0935 0.150616 32.6106 0.793301C42.0559 3.20495 49.4831 11.1512 51.4194 20.9165C51.6008 21.8313 51.7649 22.7572 51.784 22.974L51.8047 23.2696L47.5014 23.3261C45.151 23.3569 43.1674 23.2693 43.147 23.2514C43.1267 23.2335 43.0109 22.8216 42.8897 22.3362C42.0093 18.8106 40.4894 16.0413 38.1394 13.6815C35.8941 11.4267 33.5085 10.0734 30.0638 9.1003C28.8982 8.77103 28.696 8.74902 26.391 8.70068C24.2017 8.65475 23.8297 8.67463 22.7602 8.8946C18.0363 9.86621 14.1526 12.4453 11.557 16.3344C7.03333 23.1128 7.80179 32.0896 13.4112 37.9943C15.798 40.5068 18.738 42.2006 22.0752 42.986L23.3941 43.2964L23.3648 47.6332C23.3329 52.3454 23.3752 52.0625 22.7187 51.9551L22.7187 51.9551ZM80.414 33.5631C79.1214 33.1326 78.1565 32.1417 77.7161 30.7924C77.5172 30.1827 77.4984 29.781 77.4984 26.1273V22.1294L78.9708 22.098L80.4432 22.0667L80.4912 25.6455C80.5355 28.9523 80.5566 29.2628 80.7687 29.7311C81.0654 30.3862 81.3512 30.6316 82.0203 30.8059C83.0119 31.0642 84.0593 30.6999 84.5953 29.9102C85.0079 29.3023 85.0859 28.6523 85.1472 25.3108L85.2066 22.0731H86.7082H88.2097L88.1807 27.8447L88.1516 33.6164H86.7498H85.3481L85.3139 33.0814C85.2951 32.7872 85.2267 32.5465 85.1619 32.5465C85.097 32.5465 84.8515 32.6996 84.6162 32.8867C83.8746 33.4766 83.2126 33.7027 82.0975 33.747C81.3088 33.7783 80.9391 33.7379 80.414 33.5631V33.5631ZM93.0857 33.7124C91.9263 33.4703 90.6579 33.0058 90.3214 32.7001C90.15 32.5443 90.1553 32.4847 90.3928 31.8917C90.828 30.8053 91.0041 30.4244 91.0985 30.3658C91.1484 30.3349 91.4141 30.4124 91.6889 30.5382C92.9253 31.1041 94.4121 31.385 95.4698 31.2525C96.4183 31.1337 96.9151 30.5714 96.6605 29.905C96.5434 29.5984 96.0261 29.4088 94.4821 29.1064C92.6596 28.7495 91.8969 28.4705 91.3247 27.9514C90.616 27.3084 90.3981 26.7861 90.3991 25.7331C90.4 25.0331 90.4585 24.7009 90.6622 24.2435C91.1298 23.1936 92.2986 22.3547 93.7024 22.0614C95.0676 21.7761 98.0975 22.1495 98.9548 22.7086C99.2651 22.911 99.2405 23.08 98.7276 24.2691C98.302 25.2559 98.2717 25.2866 97.9404 25.0687C97.5025 24.7805 95.9732 24.438 95.1241 24.438C93.8923 24.438 93.0712 25.034 93.3011 25.7613C93.4159 26.1246 94.1495 26.4314 95.6088 26.7265C98.0588 27.2219 98.9297 27.707 99.4187 28.8485C99.7702 29.6691 99.7075 30.9337 99.2789 31.6681C98.4371 33.1108 96.8941 33.797 94.548 33.7722C93.8671 33.765 93.209 33.7381 93.0857 33.7124ZM105.222 33.609C104.126 33.3422 103.346 32.9016 102.56 32.1046C101.328 30.8558 100.879 29.7095 100.879 27.8133C100.879 24.3868 103.204 21.9604 106.486 21.9604C108.607 21.9604 110.421 23.0285 111.325 24.8098C111.759 25.664 112.043 27.161 111.995 28.3515L111.981 28.7175L108.589 28.7184C106.723 28.7188 104.932 28.7513 104.608 28.7903C104.101 28.8515 104.019 28.8952 104.019 29.1052C104.019 29.5172 104.641 30.3674 105.16 30.6657C105.937 31.112 106.722 31.2492 107.598 31.0919C108.007 31.0185 108.542 30.836 108.787 30.6864C109.717 30.1193 109.714 30.1201 109.947 30.4175C110.064 30.5664 110.368 30.9406 110.622 31.2492C110.876 31.5578 111.084 31.8962 111.084 32.0012C111.084 32.4491 109.46 33.4185 108.303 33.6607C107.506 33.8276 106.018 33.8025 105.222 33.6088L105.222 33.609ZM109.097 26.846C109.228 26.7149 108.736 25.6387 108.368 25.2498C107.861 24.7139 107.229 24.443 106.486 24.443C105.403 24.443 104.642 24.9666 104.101 26.0836C103.696 26.9208 103.681 26.9156 106.52 26.9156C107.899 26.9156 109.059 26.8843 109.097 26.846ZM115.497 33.5603C114.606 33.2675 113.785 32.5417 113.444 31.7448C113.233 31.2525 113.2 31.0022 113.232 30.1363C113.266 29.228 113.309 29.0491 113.607 28.5709C113.994 27.9493 114.696 27.4379 115.508 27.185C115.849 27.0789 116.852 26.9686 118.029 26.9077C119.104 26.8521 120.029 26.7615 120.084 26.7065C120.239 26.5505 119.973 25.7296 119.636 25.3281C118.85 24.3898 117.069 24.2978 115.41 25.1096C115.025 25.2977 114.674 25.4516 114.628 25.4516C114.522 25.4516 113.663 23.6152 113.663 23.3879C113.663 23.0953 114.168 22.7961 115.312 22.4101C116.192 22.1133 116.647 22.0291 117.603 21.9862C119.702 21.8919 120.925 22.2604 121.96 23.2997C123.021 24.3654 123.221 25.5897 123.169 30.6972L123.139 33.6164H121.793H120.448L120.417 33.2785C120.4 33.0927 120.359 32.8191 120.326 32.6706L120.267 32.4005L119.852 32.7994C119.127 33.4982 118.574 33.7044 117.308 33.7481C116.412 33.779 116.048 33.7412 115.497 33.5603H115.497ZM119.018 31.2941C119.698 30.9634 120.085 30.3466 120.146 29.4956L120.194 28.8301H118.712C116.989 28.8301 116.538 28.969 116.285 29.5779C116.085 30.0574 116.09 30.3393 116.304 30.7552C116.705 31.5341 117.996 31.7906 119.018 31.2941ZM151.958 33.5234C150.827 33.144 150.261 32.823 149.576 32.1726C148.841 31.4746 148.269 30.481 148.04 29.5034C147.844 28.6681 147.816 26.9846 147.986 26.2431C148.486 24.0641 150.497 22.2316 152.66 21.9821C155.413 21.6649 157.685 23.0121 158.581 25.4929C158.772 26.0193 158.873 26.602 158.925 27.4715L159 28.704L155.064 28.7389C152.441 28.7622 151.088 28.8144 151.007 28.8954C150.789 29.1146 151.447 30.1898 152.048 30.5961C153.25 31.4094 155.262 31.3106 156.237 30.3904C156.415 30.223 156.533 30.1886 156.668 30.265C156.958 30.4277 158.191 31.9006 158.149 32.0339C158.073 32.2742 156.721 33.2077 156.088 33.4564C155.567 33.6611 155.163 33.7204 154.089 33.7497C152.916 33.7818 152.643 33.7527 151.958 33.5234V33.5234ZM156.03 26.6146C156.111 26.0423 155.248 24.9441 154.457 24.6127C153.893 24.3765 153.035 24.3927 152.435 24.651C151.873 24.893 151.185 25.6375 150.998 26.2047C150.759 26.9315 150.729 26.9232 153.498 26.8896C155.966 26.8597 155.996 26.8564 156.03 26.6146V26.6146ZM58.768 33.5353C58.7379 33.456 58.7262 30.0717 58.7422 26.0147L58.7713 18.6382H60.0993H61.4274L62.4934 20.5527C63.0797 21.6057 64.1907 23.6075 64.9624 25.0011C65.7341 26.3948 66.4309 27.6045 66.5109 27.6895C66.6752 27.8641 66.4067 28.319 69.6577 22.3567L71.6852 18.6382L72.9946 18.6065L74.3041 18.5747L74.2752 26.0955L74.2464 33.6163H72.8447H71.4429L71.4136 29.2998C71.3917 26.0869 71.3509 24.9944 71.2541 25.0268C71.0988 25.0788 70.4219 26.2445 68.6446 29.5214L67.3228 31.9583L66.6355 32.0132C66.2035 32.0477 65.9025 32.021 65.8254 31.9413C65.7579 31.8715 65.0563 30.6489 64.2663 29.2243C62.3504 25.7691 61.9501 25.0934 61.8681 25.1755C61.8301 25.2136 61.7738 27.1284 61.7429 29.4306L61.6869 33.6163L60.2549 33.6479C59.1714 33.6718 58.8095 33.6445 58.768 33.5353V33.5353ZM126.11 25.6768V17.681H127.568H129.026V25.6768V33.6727H127.568H126.11V25.6768ZM132.132 33.6008C132.089 33.5578 132.054 30.9464 132.054 27.7978V22.0731H133.569H135.084L135.055 27.8447L135.025 33.6164L133.618 33.6477C132.843 33.665 132.175 33.6439 132.132 33.6008L132.132 33.6008ZM137.288 33.5987C137.246 33.5567 137.212 33.1096 137.212 32.6051V31.6877L139.847 28.2812C141.297 26.4076 142.483 24.8348 142.483 24.786C142.483 24.675 140.518 24.5505 138.765 24.5505H137.436V23.3117V22.0729H141.978H146.52V23.0891V24.1053L145.696 25.1444C143.438 27.9937 141.261 30.9144 141.338 30.9915C141.386 31.0391 142.609 31.0917 144.056 31.1084L146.688 31.1387V32.3774V33.6162L142.026 33.6456C139.462 33.6618 137.33 33.6407 137.288 33.5987V33.5987Z" fill="#3D2283"/>
</svg>
