<svg width="24" height="32" viewBox="0 0 24 32" fill="none" xmlns="http://www.w3.org/2000/svg">
<path d="M10.7668 31.3544C1.68563 18.1894 0 16.8383 0 12C0 5.37256 5.37256 0 12 0C18.6274 0 24 5.37256 24 12C24 16.8383 22.3144 18.1894 13.2332 31.3544C12.6373 32.2152 11.3626 32.2152 10.7668 31.3544Z" fill="#3D2283"/>
<path d="M7.71081 19V7.8H13.1828C14.5908 7.8 15.6468 8.06667 16.3508 8.6C17.0655 9.13333 17.4228 9.83733 17.4228 10.712C17.4228 11.2987 17.2788 11.8107 16.9908 12.248C16.7028 12.6747 16.3081 13.0053 15.8068 13.24C15.3055 13.4747 14.7295 13.592 14.0788 13.592L14.3828 12.936C15.0868 12.936 15.7108 13.0533 16.2548 13.288C16.7988 13.512 17.2201 13.848 17.5188 14.296C17.8281 14.744 17.9828 15.2933 17.9828 15.944C17.9828 16.904 17.6041 17.656 16.8468 18.2C16.0895 18.7333 14.9748 19 13.5028 19H7.71081ZM10.2868 17.048H13.3108C13.9828 17.048 14.4895 16.9413 14.8308 16.728C15.1828 16.504 15.3588 16.152 15.3588 15.672C15.3588 15.2027 15.1828 14.856 14.8308 14.632C14.4895 14.3973 13.9828 14.28 13.3108 14.28H10.0948V12.392H12.8628C13.4921 12.392 13.9721 12.2853 14.3028 12.072C14.6441 11.848 14.8148 11.512 14.8148 11.064C14.8148 10.6267 14.6441 10.3013 14.3028 10.088C13.9721 9.864 13.4921 9.752 12.8628 9.752H10.2868V17.048Z" fill="#FFDC50"/>
</svg>
